<?xml version="1.0" standalone="no"?>
<!DOCTYPE svg PUBLIC "-//W3C//DTD SVG 20010904//EN"
 "http://www.w3.org/TR/2001/REC-SVG-20010904/DTD/svg10.dtd">
<svg version="1.0" xmlns="http://www.w3.org/2000/svg"
 width="16.000000pt" height="16.000000pt" viewBox="0 0 16.000000 16.000000"
 preserveAspectRatio="xMidYMid meet">
<metadata>
Created by potrace 1.11, written by Peter Selinger 2001-2013
</metadata>
<g transform="translate(0.000000,16.000000) scale(0.005212,-0.005212)"
fill="#000000" stroke="none">
<path d="M248 2954 c-97 -30 -171 -96 -217 -194 l-26 -55 -2 -1151 -3 -1151
22 -54 c40 -100 88 -151 188 -201 l65 -33 855 0 c799 0 858 1 907 18 97 34
182 119 220 219 12 34 16 91 17 276 1 127 -1 232 -5 232 -3 0 -41 -45 -85 -99
l-78 -100 1 -114 c1 -89 -2 -122 -16 -153 -22 -49 -70 -90 -121 -104 -26 -7
-309 -10 -858 -8 l-818 3 -41 27 c-25 16 -49 44 -63 72 l-22 45 1 1113 c0 807
3 1121 11 1143 14 37 55 82 95 103 26 14 99 16 606 16 l577 1 4 -180 c4 -171
5 -183 31 -236 29 -61 79 -117 135 -154 63 -41 130 -54 274 -54 73 0 151 0
173 0 l40 -1 -2 -221 c-3 -255 -13 -249 102 -64 l68 110 1 135 c1 87 -3 144
-10 160 -7 14 -79 89 -160 165 -139 131 -183 173 -403 381 -46 43 -92 88 -103
99 -19 20 -33 20 -666 22 -545 2 -654 0 -694 -13z"/>
<path d="M619 2515 c-1 -8 -2 -29 -3 -46 -1 -25 -8 -34 -41 -50 -63 -31 -93
-66 -106 -124 -22 -100 16 -155 150 -217 47 -22 94 -46 103 -55 27 -24 23 -69
-7 -89 -31 -21 -135 -15 -182 9 -36 19 -43 13 -60 -46 -9 -31 -8 -40 5 -56 19
-21 72 -41 108 -41 22 0 49 -31 37 -43 -3 -3 -2 -18 1 -32 6 -24 10 -26 54
-23 49 3 49 2 51 65 1 28 7 36 49 57 50 26 72 47 97 96 23 45 17 124 -13 169
-32 46 -50 59 -140 97 -41 17 -82 39 -93 47 -23 20 -25 60 -3 78 19 16 114 16
153 -1 17 -6 35 -10 42 -8 16 5 41 90 30 101 -5 5 -35 17 -67 27 -52 16 -59
21 -61 45 -4 49 -10 55 -58 55 -33 0 -45 -4 -46 -15z"/>
<path d="M2747 2379 c-68 -19 -142 -104 -281 -324 -42 -66 -79 -124 -84 -130
-4 -5 -32 -50 -61 -100 -73 -126 -74 -126 -97 -160 -20 -30 -79 -132 -144
-250 -18 -33 -42 -75 -52 -94 -27 -48 -183 -358 -204 -406 -60 -138 -114 -295
-120 -356 -6 -51 -5 -57 14 -61 41 -11 131 67 272 237 220 264 435 583 726
1075 54 91 102 170 106 177 7 9 18 6 44 -9 l34 -20 -19 -32 c-100 -165 -333
-585 -338 -607 -4 -22 1 -35 26 -60 24 -24 35 -28 45 -20 7 6 46 69 86 139 41
70 131 226 202 348 77 133 128 232 128 248 0 21 -10 32 -46 54 -25 15 -58 35
-74 44 l-29 17 21 53 c26 69 26 129 -1 166 -37 52 -106 84 -154 71z"/>
<path d="M1019 1838 c-50 -30 -51 -103 -3 -135 23 -15 67 -16 429 -16 222 0
415 3 429 7 27 7 56 51 56 85 0 11 -11 32 -24 48 l-24 28 -417 0 c-379 0 -420
-1 -446 -17z"/>
<path d="M458 1520 c-67 -5 -94 -21 -99 -57 -1 -7 -2 -19 -3 -25 -4 -26 25
-68 52 -75 34 -9 1428 -10 1463 0 52 14 68 92 26 134 l-25 25 -673 2 c-371 0
-704 -1 -741 -4z"/>
<path d="M379 1161 c-37 -38 -38 -74 -1 -111 l29 -28 662 0 662 -1 30 62 c17
34 35 72 40 85 l9 22 -701 0 -701 0 -29 -29z"/>
<path d="M401 844 c-31 -13 -50 -48 -45 -84 5 -33 48 -70 82 -71 200 -5 1155
0 1161 7 8 9 47 115 53 144 3 12 -79 14 -611 15 -428 0 -622 -3 -640 -11z"/>
</g>
</svg>
